<?xml version="1.0" encoding="utf-8"?>
<!-- Generator: Adobe Illustrator 24.2.1, SVG Export Plug-In . SVG Version: 6.00 Build 0)  -->
<svg version="1.1" id="Layer_1" xmlns="http://www.w3.org/2000/svg" xmlns:xlink="http://www.w3.org/1999/xlink" x="0px" y="0px"
	 viewBox="0 0 261 72" style="enable-background:new 0 0 261 72;" xml:space="preserve">
<style type="text/css">
	.st0{enable-background:new    ;}
	.st1{fill:#FFFFFF;}
	.st2{fill:#DC265A;}
</style>
<g class="st0">
	<path class="st1" d="M10.3,52.5c-0.6,0-1.1-0.2-1.6-0.6S8.2,51,8.2,50.4V21.9c0-0.6,0.2-1.2,0.6-1.6c0.4-0.4,0.9-0.6,1.6-0.6h10
		c1.9,0,3.6,0.4,5,1.1s2.6,1.8,3.4,3.1s1.2,2.8,1.2,4.5c0,1.4-0.4,2.6-1.1,3.7s-1.8,2-3,2.6c1.8,0.4,3.3,1.3,4.5,2.6
		c1.1,1.3,1.7,3,1.7,5.2c0,1.9-0.5,3.6-1.4,5.1s-2.2,2.7-3.8,3.5c-1.6,0.9-3.5,1.3-5.6,1.3L10.3,52.5L10.3,52.5z M12.5,33.2h7.9
		c1.6,0,2.9-0.4,3.9-1.2s1.5-2,1.5-3.6s-0.5-2.8-1.5-3.5c-1-0.8-2.3-1.2-3.9-1.2h-7.9V33.2z M12.5,48.5h8.7c1.3,0,2.4-0.2,3.4-0.7
		c1-0.4,1.8-1.1,2.3-2c0.6-0.9,0.8-1.9,0.8-3.2c0-1.2-0.3-2.2-0.8-3c-0.6-0.8-1.3-1.4-2.3-1.8c-1-0.4-2.1-0.6-3.4-0.6h-8.7
		C12.5,37.3,12.5,48.5,12.5,48.5z"/>
	<path class="st1" d="M59.8,53c-2.5,0-4.7-0.4-6.8-1.2c-2-0.8-3.8-2-5.3-3.5S45.1,45,44.3,43c-0.8-2.1-1.2-4.3-1.2-6.8
		s0.4-4.7,1.2-6.8c0.8-2,2-3.8,3.4-5.3c1.5-1.5,3.2-2.7,5.3-3.5c2-0.8,4.3-1.2,6.8-1.2s4.7,0.4,6.7,1.2c2,0.8,3.8,2,5.3,3.5
		s2.6,3.3,3.4,5.3s1.2,4.3,1.2,6.8S76,40.9,75.2,43c-0.8,2.1-2,3.8-3.4,5.3s-3.2,2.7-5.3,3.5C64.5,52.5,62.3,53,59.8,53z M59.8,49
		c1.8,0,3.5-0.3,5-1c1.5-0.7,2.8-1.6,4-2.7c1.1-1.2,2-2.5,2.6-4.1s0.9-3.3,0.9-5.1S72,32.6,71.4,31c-0.6-1.6-1.5-2.9-2.6-4.1
		s-2.4-2.1-4-2.7s-3.2-1-5-1s-3.5,0.3-5,1s-2.8,1.5-3.9,2.7c-1.1,1.2-2,2.5-2.6,4.1c-0.6,1.6-0.9,3.3-0.9,5.1s0.3,3.5,0.9,5.1
		c0.6,1.6,1.5,2.9,2.6,4.1c1.1,1.2,2.4,2.1,3.9,2.7S58,49,59.8,49z"/>
	<path class="st1" d="M88.5,52.5c-0.6,0-1.1-0.2-1.5-0.6c-0.3-0.4-0.5-0.9-0.5-1.4s0.2-1,0.5-1.5l10.6-14.1l1.9-1.7l9.7-12.9
		c0.4-0.4,0.9-0.6,1.6-0.6c0.6,0,1.1,0.2,1.4,0.5c0.3,0.4,0.5,0.8,0.5,1.3s-0.1,1-0.5,1.6L102,36.8l-1.8,1.6L90,51.9
		C89.6,52.3,89.1,52.5,88.5,52.5z M110.5,52.5c-0.4,0-0.7-0.1-0.9-0.2c-0.3-0.1-0.5-0.3-0.7-0.6L99,38.2l-1.6-1.3l-9.9-13.7
		c-0.3-0.4-0.5-0.9-0.4-1.5c0.1-0.5,0.3-1,0.6-1.4c0.3-0.4,0.8-0.6,1.4-0.6c0.7,0,1.2,0.2,1.6,0.6l9.3,12.9l1.6,1.3L112,49
		c0.3,0.4,0.5,1,0.5,1.5c0,0.6-0.2,1-0.6,1.4C111.6,52.3,111.1,52.5,110.5,52.5z"/>
	<path class="st1" d="M127.9,52.5c-0.6,0-1.1-0.2-1.6-0.6s-0.6-0.9-0.6-1.6V21.9c0-0.6,0.2-1.2,0.6-1.6s0.9-0.6,1.6-0.6h19
		c0.6,0,1.2,0.2,1.6,0.6c0.4,0.4,0.6,0.9,0.6,1.5s-0.2,1.1-0.6,1.4c-0.4,0.4-0.9,0.5-1.6,0.5H130V34h12.1c0.6,0,1.2,0.2,1.6,0.6
		c0.4,0.4,0.6,0.9,0.6,1.4s-0.2,1.1-0.6,1.4c-0.4,0.4-0.9,0.6-1.6,0.6H130v10.5h16.8c0.6,0,1.2,0.2,1.6,0.5c0.4,0.4,0.6,0.8,0.6,1.4
		c0,0.6-0.2,1.1-0.6,1.5c-0.4,0.4-0.9,0.6-1.6,0.6H127.9L127.9,52.5z"/>
	<path class="st1" d="M164.2,52.5c-0.6,0-1.1-0.2-1.5-0.6c-0.4-0.4-0.6-0.9-0.6-1.6V21.9c0-0.6,0.2-1.1,0.6-1.6s0.9-0.6,1.5-0.6
		s1.1,0.2,1.6,0.6s0.6,0.9,0.6,1.6v26.3h15.2c0.6,0,1.1,0.2,1.6,0.6c0.4,0.4,0.6,0.9,0.6,1.6s-0.2,1.1-0.6,1.6
		c-0.4,0.4-0.9,0.6-1.6,0.6L164.2,52.5L164.2,52.5z"/>
</g>
<g class="st0">
	<path class="st2" d="M205.6,52.5c-2.1,0-4-0.4-5.6-1.3c-1.6-0.9-2.9-2.1-3.8-3.6s-1.4-3.2-1.4-5.1c0-0.6,0.2-1.2,0.6-1.6
		c0.4-0.4,0.8-0.6,1.4-0.6c0.6,0,1,0.2,1.4,0.6c0.4,0.4,0.5,0.9,0.5,1.6c0,1.1,0.3,2.2,0.9,3.2c0.6,1,1.4,1.7,2.4,2.3
		s2.1,0.9,3.4,0.9c1.8,0,3.3-0.5,4.5-1.5c1.1-1,1.7-2.5,1.7-4.3c0-1.2-0.3-2.2-0.8-3.2c-0.5-0.9-1.2-1.7-2.1-2.2
		c-0.9-0.6-1.8-0.8-2.9-0.8c-0.6,0-1.1-0.2-1.5-0.6c-0.4-0.4-0.6-0.9-0.6-1.6s0.2-1.1,0.6-1.5c0.4-0.4,0.9-0.6,1.5-0.6
		c0.8,0,1.5-0.2,2.3-0.6c0.7-0.4,1.3-1,1.8-1.6c0.5-0.7,0.7-1.5,0.7-2.3c0-1.2-0.4-2.3-1.3-3.1s-2-1.3-3.4-1.3c-1.1,0-2,0.2-2.9,0.6
		s-1.6,1-2.1,1.7s-0.8,1.5-0.8,2.4c0,0.6-0.2,1.2-0.5,1.6c-0.4,0.4-0.8,0.7-1.4,0.7c-0.5,0-1-0.2-1.4-0.6s-0.6-0.9-0.6-1.5
		c0-1.6,0.4-3.1,1.3-4.4s2-2.3,3.4-3c1.5-0.7,3.1-1.1,4.9-1.1c1.7,0,3.1,0.4,4.5,1.1c1.3,0.7,2.4,1.7,3.1,2.9
		c0.8,1.2,1.2,2.6,1.2,4.1c0,1.1-0.2,2.1-0.7,2.9s-1.1,1.6-1.9,2.2c-0.8,0.6-1.6,1.1-2.4,1.5c1.5,0.5,2.7,1.2,3.6,2
		c0.9,0.9,1.6,1.8,2,3c0.4,1.1,0.7,2.3,0.7,3.7c0,1.8-0.5,3.5-1.4,4.9s-2.2,2.6-3.7,3.4C209.1,52.1,207.4,52.5,205.6,52.5z"/>
	<path class="st2" d="M231,52.5c-0.6,0-1.1-0.2-1.6-0.6s-0.6-0.9-0.6-1.6V21.9c0-0.6,0.2-1.2,0.6-1.6c0.4-0.4,0.9-0.6,1.6-0.6h7.6
		c2.4,0,4.6,0.4,6.6,1.2c2,0.8,3.7,1.9,5.1,3.4s2.6,3.2,3.4,5.2c0.8,2,1.2,4.2,1.2,6.6s-0.4,4.6-1.2,6.6s-1.9,3.7-3.4,5.2
		s-3.2,2.6-5.1,3.4c-2,0.8-4.2,1.2-6.6,1.2H231z M233.2,48.7h5.4c2.4,0,4.4-0.5,6.2-1.6s3.2-2.6,4.3-4.5c1-1.9,1.6-4.1,1.6-6.5
		c0-2.5-0.5-4.6-1.6-6.5c-1-1.9-2.5-3.3-4.3-4.4s-3.9-1.6-6.2-1.6h-5.4V48.7z"/>
</g>
<g>
	<path class="st2" d="M195.7,59.5c-0.1,0-0.2,0-0.2-0.1c-0.1-0.1-0.1-0.2,0-0.3l1.6-3.8c0.1-0.1,0.1-0.2,0.3-0.2
		c0.1,0,0.2,0.1,0.3,0.2l1.6,3.8c0,0.1,0,0.2,0,0.3c-0.1,0.1-0.1,0.1-0.2,0.1c-0.1,0-0.1,0-0.2,0c-0.1,0-0.1-0.1-0.1-0.1l-1.4-3.5
		h0.2l-1.4,3.5c0,0.1-0.1,0.1-0.1,0.1C195.8,59.5,195.7,59.5,195.7,59.5z M196,58.6l0.2-0.5h2.2l0.2,0.5H196z"/>
	<path class="st2" d="M200.9,59.5c-0.1,0-0.2,0-0.2-0.1c-0.1-0.1-0.1-0.1-0.1-0.2v-3.8c0-0.1,0-0.2,0.1-0.2c0.1-0.1,0.1-0.1,0.2-0.1
		c0.1,0,0.2,0,0.2,0.1c0.1,0.1,0.1,0.1,0.1,0.2V59h2c0.1,0,0.2,0,0.2,0.1c0.1,0.1,0.1,0.1,0.1,0.2c0,0.1,0,0.2-0.1,0.2
		c-0.1,0.1-0.1,0.1-0.2,0.1L200.9,59.5L200.9,59.5z"/>
	<path class="st2" d="M205.4,59.5c-0.1,0-0.2,0-0.2-0.1c-0.1-0.1-0.1-0.1-0.1-0.2v-3.8c0-0.1,0-0.2,0.1-0.2c0.1-0.1,0.1-0.1,0.2-0.1
		h1.1c0.3,0,0.5,0.1,0.7,0.2c0.2,0.1,0.4,0.3,0.5,0.5s0.2,0.5,0.2,0.8s-0.1,0.5-0.2,0.7c-0.1,0.2-0.3,0.4-0.5,0.5s-0.5,0.2-0.7,0.2
		h-0.8v1.2c0,0.1,0,0.2-0.1,0.2C205.5,59.5,205.5,59.5,205.4,59.5z M205.7,57.5h0.8c0.2,0,0.3,0,0.5-0.1c0.1-0.1,0.2-0.2,0.3-0.3
		s0.1-0.3,0.1-0.5s0-0.3-0.1-0.5s-0.2-0.2-0.3-0.3s-0.3-0.1-0.5-0.1h-0.8V57.5z"/>
	<path class="st2" d="M209.7,59.5c-0.1,0-0.2,0-0.2-0.1c-0.1-0.1-0.1-0.1-0.1-0.2v-3.8c0-0.1,0-0.2,0.1-0.2c0.1-0.1,0.1-0.1,0.2-0.1
		c0.1,0,0.2,0,0.2,0.1c0.1,0.1,0.1,0.1,0.1,0.2V57h2.6v-1.6c0-0.1,0-0.2,0.1-0.2c0.1-0.1,0.1-0.1,0.2-0.1c0.1,0,0.2,0,0.2,0.1
		c0.1,0.1,0.1,0.1,0.1,0.2v3.8c0,0.1,0,0.2-0.1,0.2c-0.1,0.1-0.1,0.1-0.2,0.1c-0.1,0-0.2,0-0.2-0.1c-0.1-0.1-0.1-0.1-0.1-0.2v-1.7
		H210v1.7c0,0.1,0,0.2-0.1,0.2C209.9,59.5,209.8,59.5,209.7,59.5z"/>
	<path class="st2" d="M215,59.5c-0.1,0-0.2,0-0.2-0.1c-0.1-0.1-0.1-0.2,0-0.3l1.6-3.8c0.1-0.1,0.1-0.2,0.3-0.2
		c0.1,0,0.2,0.1,0.3,0.2l1.6,3.8c0,0.1,0,0.2,0,0.3c-0.1,0.1-0.1,0.1-0.2,0.1c-0.1,0-0.1,0-0.2,0c-0.1,0-0.1-0.1-0.1-0.1l-1.4-3.5
		h0.2l-1.4,3.5c0,0.1-0.1,0.1-0.1,0.1C215.1,59.5,215,59.5,215,59.5z M215.3,58.6l0.2-0.5h2.2l0.2,0.5H215.3z"/>
	<path class="st2" d="M224,59.5c-0.1,0-0.2-0.1-0.3-0.2l-1.6-3.8c-0.1-0.1-0.1-0.2,0-0.3c0-0.1,0.1-0.1,0.2-0.1
		c0.1,0,0.2,0.1,0.3,0.2l1.4,3.5h-0.1l1.5-3.5c0-0.1,0.1-0.1,0.1-0.1s0.1,0,0.2,0c0.1,0,0.2,0,0.2,0.1s0,0.2,0,0.3l-1.7,3.8
		C224.2,59.5,224.1,59.5,224,59.5C224.1,59.5,224,59.5,224,59.5z"/>
	<path class="st2" d="M227.7,59.5c-0.1,0-0.2,0-0.2-0.1c-0.1-0.1-0.1-0.1-0.1-0.2v-3.8c0-0.1,0-0.2,0.1-0.2c0.1-0.1,0.1-0.1,0.2-0.1
		h2.5c0.1,0,0.2,0,0.2,0.1c0.1,0,0.1,0.1,0.1,0.2c0,0.1,0,0.1-0.1,0.2c-0.1,0-0.1,0.1-0.2,0.1H228v1.4h1.6c0.1,0,0.2,0,0.2,0.1
		c0.1,0.1,0.1,0.1,0.1,0.2c0,0.1,0,0.1-0.1,0.2c-0.1,0.1-0.1,0.1-0.2,0.1H228V59h2.2c0.1,0,0.2,0,0.2,0.1c0.1,0,0.1,0.1,0.1,0.2
		c0,0.1,0,0.1-0.1,0.2c-0.1,0.1-0.1,0.1-0.2,0.1L227.7,59.5L227.7,59.5z"/>
	<path class="st2" d="M232.5,59.5c-0.1,0-0.2,0-0.2-0.1c-0.1-0.1-0.1-0.1-0.1-0.2v-3.8c0-0.1,0-0.2,0.1-0.2c0.1-0.1,0.1-0.1,0.2-0.1
		h1c0.3,0,0.5,0.1,0.7,0.2c0.2,0.1,0.4,0.3,0.5,0.5s0.2,0.4,0.2,0.7s-0.1,0.5-0.2,0.7c-0.1,0.2-0.3,0.4-0.5,0.5s-0.5,0.2-0.7,0.2
		h-0.7v1.4c0,0.1,0,0.2-0.1,0.2C232.7,59.5,232.6,59.5,232.5,59.5z M232.8,57.3h0.7c0.2,0,0.3,0,0.5-0.1c0.1-0.1,0.2-0.2,0.3-0.3
		s0.1-0.3,0.1-0.4c0-0.2,0-0.3-0.1-0.4c-0.1-0.1-0.2-0.2-0.3-0.3s-0.3-0.1-0.5-0.1h-0.7V57.3z M234.8,59.5c-0.1,0-0.1,0-0.1,0
		l-0.1-0.1l-1-1.6l0.6-0.2l0.9,1.5c0.1,0.1,0.1,0.2,0,0.3C235,59.5,235,59.5,234.8,59.5z"/>
	<path class="st2" d="M238,59.6c-0.2,0-0.5,0-0.7-0.1s-0.4-0.2-0.6-0.3s-0.3-0.3-0.4-0.5c0-0.1,0-0.2,0-0.2c0-0.1,0.1-0.1,0.2-0.1
		c0.1,0,0.1,0,0.2,0c0.1,0,0.1,0.1,0.1,0.2c0,0.1,0.1,0.2,0.2,0.3c0.1,0.1,0.2,0.1,0.4,0.2c0.1,0,0.3,0.1,0.5,0.1s0.3,0,0.5-0.1
		s0.3-0.1,0.4-0.2s0.1-0.2,0.1-0.4s-0.1-0.4-0.2-0.5c-0.2-0.2-0.4-0.3-0.8-0.3c-0.5,0-0.8-0.2-1.1-0.4s-0.4-0.5-0.4-0.8
		c0-0.2,0.1-0.5,0.2-0.6c0.1-0.2,0.3-0.3,0.6-0.4c0.2-0.1,0.5-0.1,0.8-0.1c0.2,0,0.4,0,0.6,0.1c0.2,0.1,0.3,0.2,0.4,0.3
		c0.1,0.1,0.2,0.2,0.3,0.4c0.1,0.1,0.1,0.2,0.1,0.2s0,0.1-0.1,0.2c-0.1,0-0.1,0.1-0.2,0c-0.1,0-0.1-0.1-0.2-0.1
		c-0.1-0.1-0.1-0.2-0.2-0.3c-0.1-0.1-0.2-0.1-0.3-0.2s-0.3-0.1-0.4-0.1c-0.3,0-0.5,0-0.7,0.2c-0.2,0.1-0.3,0.3-0.3,0.5
		c0,0.1,0,0.2,0.1,0.3s0.2,0.2,0.3,0.3s0.4,0.1,0.7,0.2c0.4,0,0.8,0.2,1,0.4s0.4,0.5,0.4,0.9c0,0.2,0,0.4-0.1,0.6s-0.2,0.3-0.4,0.4
		c-0.1,0.1-0.3,0.2-0.5,0.2S238.2,59.6,238,59.6z"/>
	<path class="st2" d="M241.6,59.5c-0.1,0-0.2,0-0.2-0.1c-0.1-0.1-0.1-0.1-0.1-0.2v-3.8c0-0.1,0-0.2,0.1-0.2c0.1-0.1,0.1-0.1,0.2-0.1
		c0.1,0,0.2,0,0.2,0.1c0.1,0.1,0.1,0.1,0.1,0.2v3.8c0,0.1,0,0.2-0.1,0.2C241.8,59.5,241.7,59.5,241.6,59.5z"/>
	<path class="st2" d="M245.9,59.6c-0.3,0-0.6-0.1-0.9-0.2s-0.5-0.3-0.7-0.5s-0.3-0.4-0.5-0.7s-0.2-0.6-0.2-0.9
		c0-0.3,0.1-0.6,0.2-0.9s0.3-0.5,0.5-0.7s0.4-0.4,0.7-0.5s0.6-0.2,0.9-0.2c0.3,0,0.6,0.1,0.9,0.2s0.5,0.3,0.7,0.5s0.4,0.4,0.5,0.7
		s0.2,0.6,0.2,0.9c0,0.3-0.1,0.6-0.2,0.9c-0.1,0.3-0.3,0.5-0.5,0.7s-0.4,0.4-0.7,0.5S246.2,59.6,245.9,59.6z M245.9,59.1
		c0.2,0,0.5,0,0.7-0.1s0.4-0.2,0.5-0.4c0.2-0.2,0.3-0.3,0.3-0.5c0.1-0.2,0.1-0.4,0.1-0.7s0-0.5-0.1-0.7s-0.2-0.4-0.3-0.5
		c-0.1-0.2-0.3-0.3-0.5-0.4c-0.2-0.1-0.4-0.1-0.7-0.1c-0.2,0-0.5,0-0.7,0.1s-0.4,0.2-0.5,0.4s-0.3,0.3-0.3,0.5
		c-0.1,0.2-0.1,0.4-0.1,0.7s0,0.5,0.1,0.7s0.2,0.4,0.3,0.5c0.1,0.2,0.3,0.3,0.5,0.4C245.4,59,245.6,59.1,245.9,59.1z"/>
	<path class="st2" d="M250.2,59.5c-0.1,0-0.2,0-0.2-0.1c-0.1-0.1-0.1-0.1-0.1-0.2v-3.8c0-0.1,0-0.2,0.1-0.2c0.1-0.1,0.1-0.1,0.2-0.1
		c0.1,0,0.2,0,0.2,0.1l2.5,3.3v-3.1c0-0.1,0-0.2,0.1-0.2c0.1-0.1,0.1-0.1,0.2-0.1c0.1,0,0.2,0,0.2,0.1c0.1,0.1,0.1,0.1,0.1,0.2v3.8
		c0,0.1,0,0.2-0.1,0.2c-0.1,0.1-0.1,0.1-0.2,0.1h-0.1c0,0-0.1,0-0.1-0.1l-2.5-3.3v3.1c0,0.1,0,0.2-0.1,0.2
		C250.3,59.5,250.3,59.5,250.2,59.5z"/>
</g>
</svg>
